<svg id="Calque_1" data-name="Calque 1" xmlns="http://www.w3.org/2000/svg" viewBox="0 0 500 500"><defs><style>.cls-1,.cls-2,.cls-4,.cls-5,.cls-6,.cls-7,.cls-8{isolation:isolate;}.cls-2,.cls-4,.cls-5,.cls-6,.cls-7,.cls-8{font-size:182.1px;font-family:Avigea;}.cls-2,.cls-4,.cls-5,.cls-6,.cls-7,.cls-8,.cls-9{fill:#fff;stroke:#fff;stroke-miterlimit:10;}.cls-2,.cls-4{letter-spacing:-0.02em;}.cls-3{letter-spacing:-0.01em;}.cls-4,.cls-6,.cls-8{stroke-width:7.28px;}.cls-5,.cls-6{letter-spacing:-0.03em;}.cls-9{stroke-width:6.57px;}</style></defs><g class="cls-1"><text class="cls-2" transform="translate(46.42 248.29)">n<tspan class="cls-3" x="106.53" y="0">e</tspan></text><text class="cls-4" transform="translate(46.42 248.29)">n<tspan class="cls-3" x="106.53" y="0">e</tspan></text><text class="cls-5" transform="translate(250.01 248.29)">k</text><text class="cls-6" transform="translate(250.01 248.29)">k</text><text class="cls-7" transform="translate(342.52 248.29)">o</text><text class="cls-8" transform="translate(342.52 248.29)">o</text><text class="cls-7" transform="translate(20.47 361.19)"><tspan xml:space="preserve">m    n</tspan></text><text class="cls-8" transform="translate(20.47 361.19)"><tspan xml:space="preserve">m    n</tspan></text></g><path class="cls-9" d="M277,295.24a33.88,33.88,0,0,0-10.77,14.62,46.33,46.33,0,1,1,35.87,45.86A34,34,0,1,0,277,295.24Z"/><path class="cls-9" d="M268.2,336.34A33.75,33.75,0,0,0,279,321.72a46.33,46.33,0,1,1-35.87-45.86,34,34,0,1,0,25.1,60.48Z"/></svg>